<?xml version="1.0" standalone="no"?>
<!DOCTYPE svg PUBLIC "-//W3C//DTD SVG 20010904//EN"
 "http://www.w3.org/TR/2001/REC-SVG-20010904/DTD/svg10.dtd">
<svg version="1.0" xmlns="http://www.w3.org/2000/svg"
 width="700.000000pt" height="700.000000pt" viewBox="0 0 700.000000 700.000000"
 preserveAspectRatio="xMidYMid meet">
<metadata>
Created by potrace 1.14, written by Peter Selinger 2001-2017
</metadata>
<g transform="translate(0.000000,700.000000) scale(0.100000,-0.100000)"
fill="#000000" stroke="none">
<path d="M1490 5670 c-188 -38 -343 -137 -466 -295 -50 -64 -115 -204 -130
-280 -2 -11 -7 -33 -10 -50 -11 -50 -12 -219 -1 -233 5 -7 7 -15 4 -18 -3 -3
2 -29 10 -57 8 -29 16 -56 18 -62 1 -5 7 -23 14 -38 6 -16 8 -33 5 -39 -4 -7
-2 -8 4 -4 7 4 12 2 12 -4 0 -7 9 -24 19 -39 11 -15 21 -34 23 -41 2 -8 12
-24 23 -36 47 -50 75 -84 75 -92 0 -5 11 -15 25 -22 13 -7 27 -21 30 -31 4
-10 9 -18 13 -17 22 6 107 -65 97 -82 -7 -11 43 -42 55 -35 6 4 13 -1 16 -9 3
-9 11 -16 17 -16 7 0 7 4 -1 12 -7 7 -12 16 -12 20 0 12 38 10 45 -2 4 -6 10
-8 15 -5 5 3 11 1 14 -4 3 -5 -11 -16 -32 -25 -31 -14 -33 -16 -8 -11 26 6 28
4 17 -9 -9 -11 -10 -16 -2 -16 6 0 11 5 11 11 0 5 6 7 13 3 9 -6 9 -5 0 7 -10
12 -8 17 8 28 19 11 20 10 15 -7 -4 -12 0 -26 9 -36 16 -16 13 -36 -6 -36 -6
0 -8 4 -4 9 9 15 -13 23 -32 11 -15 -9 -14 -10 6 -4 16 4 21 3 17 -5 -4 -6 0
-14 9 -18 10 -3 21 0 26 8 12 19 11 25 -7 43 -21 22 -11 34 26 28 27 -4 45
-32 19 -32 -5 0 -8 4 -5 8 3 5 -1 9 -8 9 -8 0 -12 -6 -9 -14 3 -7 9 -13 14
-13 10 0 -28 -59 -46 -72 -6 -5 -6 -8 -1 -8 6 0 1 -7 -10 -16 -10 -8 -13 -12
-5 -8 9 4 12 2 9 -7 -3 -8 -14 -13 -24 -12 -10 1 -13 0 -6 -3 13 -6 17 -34 4
-34 -4 0 -8 -8 -9 -18 -1 -10 -11 -47 -23 -83 -12 -35 -24 -73 -26 -84 -2 -11
-6 -31 -8 -45 -3 -14 -8 -43 -11 -64 -3 -22 -11 -46 -18 -55 -9 -12 -9 -13 1
-7 9 6 11 -4 6 -42 -9 -78 -10 -212 -1 -212 5 0 6 -4 3 -9 -7 -11 -10 -876 -3
-888 3 -5 2 -15 -3 -22 -4 -8 -4 -26 0 -41 4 -15 4 -33 0 -40 -4 -6 -4 -27 0
-46 5 -20 4 -34 -2 -34 -5 0 -6 -5 -3 -11 4 -5 8 -36 10 -67 3 -31 7 -68 10
-82 3 -14 7 -41 10 -60 3 -19 9 -50 15 -69 5 -19 7 -37 5 -42 -3 -4 0 -9 6
-11 7 -2 12 -18 13 -35 0 -17 4 -29 7 -28 5 4 34 -67 30 -74 -2 -2 2 -7 9 -11
6 -4 12 -16 13 -28 0 -11 4 -19 8 -16 10 6 20 -26 12 -39 -3 -7 -2 -9 2 -4 9
7 57 -68 58 -90 0 -7 3 -10 7 -8 10 6 71 -81 62 -90 -4 -3 -2 -5 4 -3 15 4 75
-62 67 -75 -3 -6 -1 -7 5 -3 13 8 95 -68 84 -78 -4 -4 -2 -7 3 -6 19 4 31 0
51 -18 10 -9 40 -31 67 -47 32 -20 45 -35 41 -45 -4 -11 -2 -12 6 -4 8 8 24 4
58 -12 26 -13 52 -28 58 -33 7 -5 15 -7 18 -4 3 4 6 1 6 -6 0 -7 4 -10 10 -6
16 10 82 -23 74 -37 -6 -10 -4 -10 9 0 9 8 22 10 28 6 14 -8 56 -18 195 -43
22 -4 251 -7 507 -7 305 1 467 -2 467 -9 0 -7 3 -7 8 0 4 6 69 10 157 10 88 0
153 -4 157 -10 5 -7 8 -7 8 0 0 7 163 10 468 11 257 0 490 4 517 8 63 10 188
42 238 62 21 8 43 12 48 9 5 -4 9 -3 9 2 0 4 12 14 27 20 21 10 29 10 36 0 6
-8 7 -7 3 5 -3 11 2 19 16 24 34 10 148 82 203 127 28 23 82 74 121 114 39 40
77 73 85 73 11 0 11 2 1 8 -9 6 -8 13 6 28 9 10 32 43 51 71 18 30 38 50 44
46 6 -3 7 -1 3 6 -4 6 9 45 29 86 19 41 38 88 41 105 4 16 10 30 14 30 3 0 7
6 8 13 1 20 12 71 19 87 3 8 8 33 10 55 2 22 10 43 16 47 9 6 9 8 0 8 -13 0
-5 41 11 52 8 5 7 8 -1 8 -7 0 -11 12 -10 30 1 16 4 30 7 30 6 0 3 920 -4
1195 -6 206 -9 245 -21 295 -16 65 -17 82 -3 75 7 -5 3 2 -9 14 -20 19 -26 38
-22 67 0 4 -3 10 -8 13 -13 10 -35 80 -28 91 4 6 3 10 -2 9 -20 -3 -27 2 -13
11 13 8 13 10 -1 10 -19 0 -33 26 -19 35 6 4 9 14 9 23 -1 15 -2 15 -6 0 -7
-28 -23 -21 -29 12 -4 16 -10 27 -15 24 -5 -3 -9 -2 -10 3 0 4 -2 16 -4 26 -2
10 3 18 13 18 10 1 24 2 32 3 8 1 26 7 39 15 20 11 25 11 32 0 6 -10 9 -10 9
-2 0 7 13 19 29 27 22 12 31 12 41 3 10 -10 12 -9 7 5 -3 9 0 19 9 22 8 3 14
1 14 -4 0 -6 4 -10 10 -10 5 0 7 6 4 14 -6 16 48 50 61 38 3 -4 5 -2 3 4 -2 7
15 26 36 43 30 24 42 29 48 19 6 -8 7 -4 3 11 -5 17 -4 22 6 18 8 -2 13 -10
11 -16 -1 -7 3 -9 9 -6 7 5 7 11 1 17 -12 12 -5 38 10 38 5 0 7 -4 3 -9 -3 -5
-1 -12 4 -16 6 -3 8 3 6 14 -4 22 22 64 35 56 5 -3 12 0 16 6 4 8 3 9 -4 5
-17 -11 -15 9 3 24 8 7 15 18 15 25 0 8 4 15 8 17 9 4 52 93 52 108 0 6 4 9 8
6 4 -2 8 3 9 12 2 34 27 142 32 142 3 0 6 48 5 107 -1 90 -5 130 -19 183 -1 3
-5 22 -10 43 -4 21 -18 61 -31 88 -13 27 -24 51 -24 54 0 11 -77 120 -116 164
-129 147 -340 241 -544 244 -115 2 -172 -7 -270 -39 -293 -98 -500 -374 -515
-686 -2 -42 -7 -82 -11 -89 -4 -7 -3 -9 3 -6 14 9 22 -80 8 -95 -7 -8 -6 -9 3
-4 6 4 12 6 12 4 1 -2 3 -20 6 -42 5 -29 3 -37 -7 -31 -14 9 -2132 13 -2195 4
l-42 -5 10 30 c22 75 30 249 14 326 -14 69 -29 125 -36 135 -4 6 -15 30 -24
54 -63 161 -255 340 -431 401 -135 47 -280 58 -415 30z m-204 -1430 c9 0 13
-4 9 -9 -3 -5 -1 -12 5 -16 5 -3 10 -1 10 4 0 6 5 11 10 11 16 0 12 -17 -6
-24 -20 -8 -48 13 -51 39 -1 11 0 14 3 8 3 -7 12 -13 20 -13z"/>
<path d="M866 4642 c-3 -5 1 -9 9 -9 8 0 12 4 9 9 -3 4 -7 8 -9 8 -2 0 -6 -4
-9 -8z"/>
<path d="M6046 4542 c-3 -5 1 -9 9 -9 8 0 12 4 9 9 -3 4 -7 8 -9 8 -2 0 -6 -4
-9 -8z"/>
<path d="M6046 4502 c-3 -5 1 -9 9 -9 8 0 12 4 9 9 -3 4 -7 8 -9 8 -2 0 -6 -4
-9 -8z"/>
<path d="M876 4438 c3 -5 10 -6 15 -3 13 9 11 12 -6 12 -8 0 -12 -4 -9 -9z"/>
<path d="M1006 4438 c3 -5 9 -7 12 -4 3 3 12 0 21 -6 13 -10 14 -10 4 2 -15
16 -46 23 -37 8z"/>
<path d="M936 4422 c-2 -4 -1 -14 4 -22 7 -11 9 -9 7 8 -1 24 -3 26 -11 14z"/>
<path d="M5973 4406 c0 -15 22 -15 34 0 4 5 4 6 -1 2 -5 -4 -14 -3 -21 2 -8 7
-12 5 -12 -4z"/>
<path d="M1013 4395 c0 -8 4 -12 9 -9 4 3 8 9 8 15 0 5 -4 9 -8 9 -5 0 -9 -7
-9 -15z"/>
<path d="M1040 4406 c0 -2 8 -10 18 -17 15 -13 16 -12 3 4 -13 16 -21 21 -21
13z"/>
<path d="M6145 4400 c-3 -6 1 -7 9 -4 18 7 21 14 7 14 -6 0 -13 -4 -16 -10z"/>
<path d="M1046 4358 c4 -5 9 -7 12 -4 3 3 15 -2 26 -11 21 -18 21 -18 3 3 -16
20 -52 30 -41 12z"/>
<path d="M5920 4340 c-9 -6 -10 -10 -3 -10 6 0 15 5 18 10 8 12 4 12 -15 0z"/>
<path d="M5954 4319 c1 -15 4 -31 8 -35 4 -4 5 4 3 16 -3 13 0 29 5 35 7 8 5
12 -4 12 -8 0 -13 -11 -12 -28z"/>
<path d="M1053 4327 c0 -7 9 -14 20 -14 11 -1 18 -1 16 0 -2 2 -11 8 -20 15
-12 9 -16 9 -16 -1z"/>
<path d="M5838 4311 c-16 -18 -15 -20 2 -18 11 1 16 6 12 16 -4 10 -1 12 8 6
9 -5 11 -4 6 3 -9 15 -9 15 -28 -7z"/>
<path d="M1114 4288 c9 -16 12 -16 14 -3 2 8 9 12 15 9 7 -4 9 -3 4 1 -4 5
-16 9 -26 10 -16 1 -17 -1 -7 -17z"/>
<path d="M1090 4281 c0 -6 4 -13 10 -16 6 -3 7 1 4 9 -7 18 -14 21 -14 7z"/>
<path d="M1175 4280 c-3 -5 -1 -10 4 -10 6 0 11 5 11 10 0 6 -2 10 -4 10 -3 0
-8 -4 -11 -10z"/>
<path d="M5860 4280 c-12 -7 -10 -9 8 -7 12 0 22 5 22 9 0 11 -12 10 -30 -2z"/>
<path d="M1192 4261 c-11 -6 -10 -10 4 -15 9 -3 19 -4 22 -1 3 3 0 5 -7 5 -7
0 -9 5 -6 10 7 12 4 12 -13 1z"/>
<path d="M5788 4263 c6 -2 18 -2 25 0 6 3 1 5 -13 5 -14 0 -19 -2 -12 -5z"/>
<path d="M5908 4256 c4 -6 7 -14 7 -18 0 -19 11 -14 11 6 0 12 -6 23 -13 23
-6 0 -9 -5 -5 -11z"/>
<path d="M1073 4245 c0 -8 4 -12 9 -9 5 3 6 10 3 15 -9 13 -12 11 -12 -6z"/>
<path d="M1134 4241 c0 -11 5 -17 13 -14 10 4 11 9 2 19 -15 18 -15 18 -15 -5z"/>
<path d="M5755 4250 c3 -5 8 -10 11 -10 2 0 4 5 4 10 0 6 -5 10 -11 10 -5 0
-7 -4 -4 -10z"/>
<path d="M5790 4236 c4 -4 16 -4 26 2 16 9 14 10 -8 9 -15 -1 -23 -6 -18 -11z"/>
<path d="M5817 4223 c-3 -5 -1 -17 3 -27 6 -17 7 -18 13 -3 3 9 2 17 -4 17 -6
0 -7 5 -4 10 3 6 4 10 1 10 -3 0 -7 -3 -9 -7z"/>
<path d="M5970 4219 c0 -5 5 -7 10 -4 6 3 10 8 10 11 0 2 -4 4 -10 4 -5 0 -10
-5 -10 -11z"/>
<path d="M5721 4204 c0 -11 3 -14 6 -6 3 7 2 16 -1 19 -3 4 -6 -2 -5 -13z"/>
<path d="M5750 4210 c0 -6 7 -10 15 -10 8 0 15 2 15 4 0 2 -7 6 -15 10 -8 3
-15 1 -15 -4z"/>
<path d="M5859 4218 c-5 -18 -6 -38 -1 -34 7 8 12 36 6 36 -2 0 -4 -1 -5 -2z"/>
<path d="M1030 4201 c0 -6 4 -13 10 -16 6 -3 7 1 4 9 -7 18 -14 21 -14 7z"/>
<path d="M1133 4194 c0 -9 4 -11 12 -4 7 5 14 9 16 7 2 -1 3 0 1 2 -7 11 -29
7 -29 -5z"/>
<path d="M1200 4200 c-12 -7 -10 -9 8 -7 12 0 22 5 22 9 0 11 -12 10 -30 -2z"/>
<path d="M1247 4199 c7 -7 15 -10 18 -7 3 3 -2 9 -12 12 -14 6 -15 5 -6 -5z"/>
<path d="M1355 4190 c3 -5 8 -10 11 -10 2 0 4 5 4 10 0 6 -5 10 -11 10 -5 0
-7 -4 -4 -10z"/>
<path d="M5700 4192 c0 -6 -8 -9 -17 -6 -15 5 -16 4 -3 -5 16 -11 40 3 27 16
-4 3 -7 1 -7 -5z"/>
<path d="M5590 4175 c-7 -9 -10 -18 -6 -22 3 -3 6 -1 6 5 0 6 7 9 15 6 8 -3
13 -11 12 -17 -3 -14 41 -18 50 -4 3 6 1 7 -5 3 -7 -4 -12 -1 -12 9 0 9 -6 15
-12 14 -26 -3 -39 1 -33 11 10 15 -1 12 -15 -5z m50 -25 c0 -5 -5 -10 -11 -10
-5 0 -7 5 -4 10 3 6 8 10 11 10 2 0 4 -4 4 -10z"/>
<path d="M5734 4175 c-4 -8 -10 -12 -15 -9 -5 3 -6 -2 -2 -12 5 -14 7 -14 18
5 6 12 15 18 20 14 4 -4 5 -2 1 5 -9 16 -15 15 -22 -3z"/>
<path d="M1155 4170 c-4 -6 -10 -8 -14 -6 -4 3 -8 -1 -8 -9 0 -13 4 -12 19 2
18 16 22 23 14 23 -3 0 -8 -5 -11 -10z"/>
<path d="M1226 4164 c-5 -14 -4 -15 9 -4 17 14 19 20 6 20 -5 0 -12 -7 -15
-16z"/>
<path d="M1267 4167 c-3 -7 3 -13 13 -13 10 0 16 6 13 13 -3 7 -9 13 -13 13
-4 0 -10 -6 -13 -13z"/>
<path d="M6115 4171 c-3 -5 -2 -12 3 -15 5 -3 9 1 9 9 0 17 -3 19 -12 6z"/>
<path d="M5519 4153 c-7 -10 -9 -15 -5 -11 5 4 15 3 22 -3 15 -12 34 -4 33 14
0 9 -2 9 -5 0 -3 -7 -12 -9 -20 -6 -7 3 -11 9 -8 14 10 16 -3 9 -17 -8z"/>
<path d="M5672 4156 c7 -8 15 -12 17 -11 5 6 -10 25 -20 25 -5 0 -4 -6 3 -14z"/>
<path d="M5770 4160 c0 -5 5 -10 10 -10 6 0 10 5 10 10 0 6 -4 10 -10 10 -5 0
-10 -4 -10 -10z"/>
<path d="M5800 4165 c0 -2 6 -8 13 -14 10 -8 14 -7 14 2 0 8 -6 14 -14 14 -7
0 -13 -1 -13 -2z"/>
<path d="M5856 4161 c9 -9 34 -9 34 -1 0 5 -9 8 -20 7 -10 -1 -17 -3 -14 -6z"/>
<path d="M5907 4159 c7 -7 15 -10 18 -7 3 3 -2 9 -12 12 -14 6 -15 5 -6 -5z"/>
<path d="M5947 4159 c7 -7 15 -10 18 -7 3 3 -2 9 -12 12 -14 6 -15 5 -6 -5z"/>
<path d="M1180 4145 c0 -2 6 -8 13 -14 10 -8 14 -7 14 2 0 8 -6 14 -14 14 -7
0 -13 -1 -13 -2z"/>
<path d="M1310 4140 c0 -5 5 -10 10 -10 6 0 10 5 10 10 0 6 -4 10 -10 10 -5 0
-10 -4 -10 -10z"/>
<path d="M5577 4133 c-10 -10 -8 -23 4 -23 5 0 7 5 3 12 -5 8 -2 9 10 5 10 -4
15 -3 11 3 -7 12 -19 13 -28 3z"/>
<path d="M5856 4127 c3 -10 9 -15 12 -12 3 3 0 11 -7 18 -10 9 -11 8 -5 -6z"/>
<path d="M890 4121 c0 -6 4 -13 10 -16 6 -3 7 1 4 9 -7 18 -14 21 -14 7z"/>
<path d="M1156 4113 c-6 -14 -5 -15 5 -6 7 7 10 15 7 18 -3 3 -9 -2 -12 -12z"/>
<path d="M1275 4120 c-3 -5 -3 -10 2 -10 4 0 1 -5 -7 -11 -10 -7 -11 -9 -2 -7
8 2 13 7 12 12 -1 5 4 13 12 17 9 6 9 9 1 9 -6 0 -15 -4 -18 -10z"/>
<path d="M1330 4120 c-8 -5 -10 -10 -5 -10 6 0 17 5 25 10 8 5 11 10 5 10 -5
0 -17 -5 -25 -10z"/>
<path d="M5660 4120 c-9 -6 -10 -10 -3 -10 6 0 15 5 18 10 8 12 4 12 -15 0z"/>
<path d="M5691 4127 c2 -1 13 -9 24 -17 19 -14 19 -14 6 3 -7 9 -18 17 -24 17
-6 0 -8 -1 -6 -3z"/>
<path d="M5816 4113 c-6 -14 -5 -15 5 -6 7 7 10 15 7 18 -3 3 -9 -2 -12 -12z"/>
<path d="M5946 4118 c3 -5 10 -6 15 -3 13 9 11 12 -6 12 -8 0 -12 -4 -9 -9z"/>
<path d="M6016 4118 c3 -5 10 -6 15 -3 13 9 11 12 -6 12 -8 0 -12 -4 -9 -9z"/>
<path d="M5545 4109 c-4 -6 -5 -12 -2 -15 2 -3 7 2 10 11 7 17 1 20 -8 4z"/>
<path d="M1227 4099 c7 -7 15 -10 18 -7 3 3 -2 9 -12 12 -14 6 -15 5 -6 -5z"/>
<path d="M1355 4101 c3 -5 1 -12 -5 -16 -5 -3 -10 -11 -10 -18 0 -6 7 -2 15 9
17 23 19 34 4 34 -5 0 -8 -4 -4 -9z"/>
<path d="M5595 4099 c-4 -6 -4 -13 -1 -16 3 -4 6 -1 6 5 0 7 5 12 11 12 5 0 7
-5 3 -12 -4 -7 -3 -8 5 -4 12 8 6 26 -9 26 -5 0 -12 -5 -15 -11z"/>
<path d="M5670 4083 c-22 -23 -22 -25 -4 -15 12 6 24 8 28 4 4 -3 4 2 0 12 -6
15 -4 17 6 11 9 -5 11 -4 6 3 -9 15 -7 16 -36 -15z"/>
<path d="M5748 4092 c3 -9 1 -13 -5 -9 -5 3 -10 0 -10 -8 0 -10 4 -12 12 -5 7
5 14 8 17 5 3 -3 11 3 19 12 13 17 13 17 -5 3 -18 -13 -19 -13 -14 1 4 9 1 16
-7 16 -8 0 -11 -7 -7 -15z"/>
<path d="M5636 4083 c-6 -14 -5 -15 5 -6 7 7 10 15 7 18 -3 3 -9 -2 -12 -12z"/>
<path d="M1097 4075 c-4 -8 -3 -16 1 -19 4 -3 9 4 9 15 2 23 -3 25 -10 4z"/>
<path d="M1310 4080 c0 -5 5 -10 11 -10 5 0 7 5 4 10 -3 6 -8 10 -11 10 -2 0
-4 -4 -4 -10z"/>
<path d="M1395 4080 c27 -12 43 -12 25 0 -8 5 -22 9 -30 9 -10 0 -8 -3 5 -9z"/>
<path d="M5835 4079 c-3 -4 2 -6 10 -5 21 3 28 13 10 13 -9 0 -18 -4 -20 -8z"/>
<path d="M1240 4055 c-7 -9 -11 -17 -9 -20 3 -2 10 5 17 15 14 24 10 26 -8 5z"/>
<path d="M5575 4059 c-4 -6 -4 -13 -1 -16 3 -4 6 -1 6 7 0 10 4 10 18 -1 15
-13 16 -12 3 4 -16 20 -18 20 -26 6z"/>
<path d="M5616 4057 c3 -10 9 -15 12 -12 3 3 0 11 -7 18 -10 9 -11 8 -5 -6z"/>
<path d="M5759 4055 c-1 -3 -2 -8 -3 -12 -1 -5 -5 -15 -10 -23 -7 -12 -6 -13
4 -3 13 12 23 43 14 43 -2 0 -5 -2 -5 -5z"/>
<path d="M1186 4042 c-3 -5 1 -9 9 -9 8 0 15 4 15 9 0 4 -4 8 -9 8 -6 0 -12
-4 -15 -8z"/>
<path d="M1381 4034 c0 -11 3 -14 6 -6 3 7 2 16 -1 19 -3 4 -6 -2 -5 -13z"/>
<path d="M5710 4041 c0 -6 4 -13 10 -16 6 -3 7 1 4 9 -7 18 -14 21 -14 7z"/>
<path d="M1347 4019 c7 -7 15 -10 18 -7 3 3 -2 9 -12 12 -14 6 -15 5 -6 -5z"/>
<path d="M1294 4009 c-3 -6 -2 -15 3 -20 5 -5 9 -1 9 11 0 23 -2 24 -12 9z"/>
<path d="M5660 4009 c0 -5 -4 -7 -10 -4 -14 9 -12 -1 3 -13 10 -8 13 -6 14 9
1 10 0 19 -3 19 -2 0 -4 -5 -4 -11z"/>
<path d="M5691 4004 c0 -11 3 -14 6 -6 3 7 2 16 -1 19 -3 4 -6 -2 -5 -13z"/>
<path d="M1327 3999 c7 -7 15 -10 18 -7 3 3 -2 9 -12 12 -14 6 -15 5 -6 -5z"/>
<path d="M5634 3973 c21 -25 36 -30 36 -11 0 6 -3 8 -7 5 -3 -4 -16 1 -27 10
-21 18 -21 18 -2 -4z"/>
<path d="M5815 3980 c3 -5 8 -10 11 -10 2 0 4 5 4 10 0 6 -5 10 -11 10 -5 0
-7 -4 -4 -10z"/>
<path d="M5636 3927 c3 -10 9 -15 12 -12 3 3 0 11 -7 18 -10 9 -11 8 -5 -6z"/>
<path d="M1333 3915 c0 -8 4 -12 9 -9 4 3 8 9 8 15 0 5 -4 9 -8 9 -5 0 -9 -7
-9 -15z"/>
<path d="M1205 3900 c-3 -6 1 -7 9 -4 18 7 21 14 7 14 -6 0 -13 -4 -16 -10z"/>
<path d="M5735 3861 c-3 -5 -2 -12 3 -15 5 -3 9 1 9 9 0 17 -3 19 -12 6z"/>
<path d="M5826 3738 c3 -5 10 -6 15 -3 13 9 11 12 -6 12 -8 0 -12 -4 -9 -9z"/>
<path d="M5756 3002 c-3 -5 1 -9 9 -9 8 0 12 4 9 9 -3 4 -7 8 -9 8 -2 0 -6 -4
-9 -8z"/>
<path d="M5514 1566 c1 -8 5 -18 8 -22 4 -3 5 1 4 10 -1 8 -5 18 -8 22 -4 3
-5 -1 -4 -10z"/>
<path d="M5280 1280 c-9 -6 -10 -10 -3 -10 6 0 15 5 18 10 8 12 4 12 -15 0z"/>
<path d="M2233 1105 c0 -8 4 -12 9 -9 5 3 6 10 3 15 -9 13 -12 11 -12 -6z"/>
<path d="M2316 1073 c-6 -14 -5 -15 5 -6 7 7 10 15 7 18 -3 3 -9 -2 -12 -12z"/>
<path d="M3510 1061 c0 -6 4 -12 8 -15 5 -3 9 1 9 9 0 8 -4 15 -9 15 -4 0 -8
-4 -8 -9z"/>
<path d="M4070 1061 c0 -6 4 -13 10 -16 6 -3 7 1 4 9 -7 18 -14 21 -14 7z"/>
<path d="M2509 1043 c-13 -16 -12 -17 4 -4 16 13 21 21 13 21 -2 0 -10 -8 -17
-17z"/>
<path d="M3715 1040 c3 -5 8 -10 11 -10 2 0 4 5 4 10 0 6 -5 10 -11 10 -5 0
-7 -4 -4 -10z"/>
<path d="M2436 993 c-6 -14 -5 -15 5 -6 7 7 10 15 7 18 -3 3 -9 -2 -12 -12z"/>
<path d="M2546 962 c-2 -4 4 -8 14 -8 10 0 16 4 14 8 -3 4 -9 8 -14 8 -5 0
-11 -4 -14 -8z"/>
<path d="M2549 843 c-13 -16 -12 -17 4 -4 9 7 17 15 17 17 0 8 -8 3 -21 -13z"/>
</g>
</svg>
