<svg width="64" height="64" viewBox="0 0 64 64" fill="none" xmlns="http://www.w3.org/2000/svg">
<g clip-path="url(#clip0_1936_2)">
<g filter="url(#filter0_d_1936_2)">
<mask id="path-1-inside-1_1936_2" fill="white">
<path d="M32 6C35.4119 6 38.67 6.65783 41.6553 7.85254C35.9293 10.7288 32 16.6555 32 23.5C32 33.165 39.835 41 49.5 41C52.1636 41 54.6874 40.4033 56.9473 39.3389C53.7795 50.1244 43.8106 58 32 58C17.6406 58 6 46.3594 6 32C6 17.6406 17.6406 6 32 6Z"/>
</mask>
<path d="M32 6C35.4119 6 38.67 6.65783 41.6553 7.85254C35.9293 10.7288 32 16.6555 32 23.5C32 33.165 39.835 41 49.5 41C52.1636 41 54.6874 40.4033 56.9473 39.3389C53.7795 50.1244 43.8106 58 32 58C17.6406 58 6 46.3594 6 32C6 17.6406 17.6406 6 32 6Z" fill="#F0DEAE"/>
<path d="M41.6553 7.85254L42.1041 8.74613L44.0886 7.74928L42.0268 6.92413L41.6553 7.85254ZM56.9473 39.3389L57.9067 39.6207L58.5336 37.4863L56.5212 38.4342L56.9473 39.3389ZM32 6V7C35.2824 7 38.4146 7.63269 41.2837 8.78095L41.6553 7.85254L42.0268 6.92413C38.9255 5.68297 35.5414 5 32 5V6ZM41.6553 7.85254L41.2064 6.95894C35.1557 9.99834 31 16.263 31 23.5H32H33C33 17.0481 36.703 11.4593 42.1041 8.74613L41.6553 7.85254ZM32 23.5H31C31 33.7173 39.2827 42 49.5 42V41V40C40.3873 40 33 32.6127 33 23.5H32ZM49.5 41V42C52.3144 42 54.9834 41.3692 57.3734 40.2435L56.9473 39.3389L56.5212 38.4342C54.3913 39.4374 52.0127 40 49.5 40V41ZM56.9473 39.3389L55.9878 39.0571C52.9417 49.4286 43.3547 57 32 57V58V59C44.2665 59 54.6174 50.8202 57.9067 39.6207L56.9473 39.3389ZM32 58V57C18.1929 57 7 45.8071 7 32H6H5C5 46.9117 17.0883 59 32 59V58ZM6 32H7C7 18.1929 18.1929 7 32 7V6V5C17.0883 5 5 17.0883 5 32H6Z" fill="#D9C38B" mask="url(#path-1-inside-1_1936_2)"/>
</g>
<path d="M27 37C27 37 28.7643 37.465 31 37.5C33.3341 37.5366 36 37 36 37" stroke="#302A0B" stroke-width="2" stroke-linecap="round" stroke-linejoin="round"/>
<g filter="url(#filter1_d_1936_2)">
<circle cx="22.5" cy="23.5" r="4.5" fill="white"/>
</g>
<circle cx="22.5" cy="23.5" r="2.5" fill="black"/>
</g>
<defs>
<filter id="filter0_d_1936_2" x="2" y="6" width="58.9473" height="60" filterUnits="userSpaceOnUse" color-interpolation-filters="sRGB">
<feFlood flood-opacity="0" result="BackgroundImageFix"/>
<feColorMatrix in="SourceAlpha" type="matrix" values="0 0 0 0 0 0 0 0 0 0 0 0 0 0 0 0 0 0 127 0" result="hardAlpha"/>
<feOffset dy="4"/>
<feGaussianBlur stdDeviation="2"/>
<feComposite in2="hardAlpha" operator="out"/>
<feColorMatrix type="matrix" values="0 0 0 0 0 0 0 0 0 0 0 0 0 0 0 0 0 0 0.25 0"/>
<feBlend mode="normal" in2="BackgroundImageFix" result="effect1_dropShadow_1936_2"/>
<feBlend mode="normal" in="SourceGraphic" in2="effect1_dropShadow_1936_2" result="shape"/>
</filter>
<filter id="filter1_d_1936_2" x="14" y="15" width="17" height="17" filterUnits="userSpaceOnUse" color-interpolation-filters="sRGB">
<feFlood flood-opacity="0" result="BackgroundImageFix"/>
<feColorMatrix in="SourceAlpha" type="matrix" values="0 0 0 0 0 0 0 0 0 0 0 0 0 0 0 0 0 0 127 0" result="hardAlpha"/>
<feOffset/>
<feGaussianBlur stdDeviation="2"/>
<feColorMatrix type="matrix" values="0 0 0 0 0 0 0 0 0 0 0 0 0 0 0 0 0 0 0.25 0"/>
<feBlend mode="normal" in2="BackgroundImageFix" result="effect1_dropShadow_1936_2"/>
<feBlend mode="normal" in="SourceGraphic" in2="effect1_dropShadow_1936_2" result="shape"/>
</filter>
<clipPath id="clip0_1936_2">
<rect width="64" height="64" fill="white"/>
</clipPath>
</defs>
</svg>
